<svg xmlns="http://www.w3.org/2000/svg" width="96" height="40" viewBox="0 0 96 40"><defs><radialGradient id="g" cx="50%" cy="60%" r="50%"><stop offset="0" stop-color="#FFC24A" stop-opacity=".45"/><stop offset="1" stop-color="#FFC24A" stop-opacity="0"/></radialGradient></defs><ellipse cx="48" cy="22" rx="48" ry="18" fill="url(#g)"/><g transform="translate(2 6) scale(1)"><path d="M20 2 C24 9 25 13 20 18 C15 13 16 9 20 2Z" fill="#FFC24A"/><path d="M4 21 C9 34 31 34 36 21 Z" fill="#9C3E12"/><ellipse cx="20" cy="21" rx="16" ry="3.2" fill="#D96A2B"/><path d="M34 21 L39 18 L36 23 Z" fill="#9C3E12"/></g><g transform="translate(42 11) scale(0.8)"><path d="M20 2 C24 9 25 13 20 18 C15 13 16 9 20 2Z" fill="#FFC24A"/><path d="M4 21 C9 34 31 34 36 21 Z" fill="#9C3E12"/><ellipse cx="20" cy="21" rx="16" ry="3.2" fill="#D96A2B"/><path d="M34 21 L39 18 L36 23 Z" fill="#9C3E12"/></g><g transform="translate(72 15) scale(0.66)"><path d="M20 2 C24 9 25 13 20 18 C15 13 16 9 20 2Z" fill="#FFC24A"/><path d="M4 21 C9 34 31 34 36 21 Z" fill="#9C3E12"/><ellipse cx="20" cy="21" rx="16" ry="3.2" fill="#D96A2B"/><path d="M34 21 L39 18 L36 23 Z" fill="#9C3E12"/></g></svg>
