<svg xmlns="http://www.w3.org/2000/svg" width="200" height="200" viewBox="0 0 200 200"><g fill="none" stroke-linecap="round"><line x1="0" y1="-8" x2="0" y2="8" stroke="#C2185B" stroke-width="2.2" transform="translate(100 20) rotate(35)"/><line x1="0" y1="-8" x2="0" y2="8" stroke="#C2185B" stroke-width="2.2" transform="translate(100 20) rotate(-35)"/><circle cx="100" cy="20" r="1.6" fill="#FFB627" stroke="none"/><line x1="0" y1="-8" x2="0" y2="8" stroke="#C2185B" stroke-width="2.2" transform="translate(130.6 26.1) rotate(57.5)"/><line x1="0" y1="-8" x2="0" y2="8" stroke="#C2185B" stroke-width="2.2" transform="translate(130.6 26.1) rotate(-12.5)"/><circle cx="130.6" cy="26.1" r="1.6" fill="#FFB627" stroke="none"/><line x1="0" y1="-8" x2="0" y2="8" stroke="#C2185B" stroke-width="2.2" transform="translate(156.6 43.4) rotate(80)"/><line x1="0" y1="-8" x2="0" y2="8" stroke="#C2185B" stroke-width="2.2" transform="translate(156.6 43.4) rotate(10)"/><circle cx="156.6" cy="43.4" r="1.6" fill="#FFB627" stroke="none"/><line x1="0" y1="-8" x2="0" y2="8" stroke="#C2185B" stroke-width="2.2" transform="translate(173.9 69.4) rotate(102.5)"/><line x1="0" y1="-8" x2="0" y2="8" stroke="#C2185B" stroke-width="2.2" transform="translate(173.9 69.4) rotate(32.5)"/><circle cx="173.9" cy="69.4" r="1.6" fill="#FFB627" stroke="none"/><line x1="0" y1="-8" x2="0" y2="8" stroke="#C2185B" stroke-width="2.2" transform="translate(180 100) rotate(125)"/><line x1="0" y1="-8" x2="0" y2="8" stroke="#C2185B" stroke-width="2.2" transform="translate(180 100) rotate(55)"/><circle cx="180" cy="100" r="1.6" fill="#FFB627" stroke="none"/><line x1="0" y1="-8" x2="0" y2="8" stroke="#C2185B" stroke-width="2.2" transform="translate(173.9 130.6) rotate(147.5)"/><line x1="0" y1="-8" x2="0" y2="8" stroke="#C2185B" stroke-width="2.2" transform="translate(173.9 130.6) rotate(77.5)"/><circle cx="173.9" cy="130.6" r="1.6" fill="#FFB627" stroke="none"/><line x1="0" y1="-8" x2="0" y2="8" stroke="#C2185B" stroke-width="2.2" transform="translate(156.6 156.6) rotate(170)"/><line x1="0" y1="-8" x2="0" y2="8" stroke="#C2185B" stroke-width="2.2" transform="translate(156.6 156.6) rotate(100)"/><circle cx="156.6" cy="156.6" r="1.6" fill="#FFB627" stroke="none"/><line x1="0" y1="-8" x2="0" y2="8" stroke="#C2185B" stroke-width="2.2" transform="translate(130.6 173.9) rotate(192.5)"/><line x1="0" y1="-8" x2="0" y2="8" stroke="#C2185B" stroke-width="2.2" transform="translate(130.6 173.9) rotate(122.5)"/><circle cx="130.6" cy="173.9" r="1.6" fill="#FFB627" stroke="none"/><line x1="0" y1="-8" x2="0" y2="8" stroke="#C2185B" stroke-width="2.2" transform="translate(100 180) rotate(215)"/><line x1="0" y1="-8" x2="0" y2="8" stroke="#C2185B" stroke-width="2.2" transform="translate(100 180) rotate(145)"/><circle cx="100" cy="180" r="1.6" fill="#FFB627" stroke="none"/><line x1="0" y1="-8" x2="0" y2="8" stroke="#C2185B" stroke-width="2.2" transform="translate(69.4 173.9) rotate(237.5)"/><line x1="0" y1="-8" x2="0" y2="8" stroke="#C2185B" stroke-width="2.2" transform="translate(69.4 173.9) rotate(167.5)"/><circle cx="69.4" cy="173.9" r="1.6" fill="#FFB627" stroke="none"/><line x1="0" y1="-8" x2="0" y2="8" stroke="#C2185B" stroke-width="2.2" transform="translate(43.4 156.6) rotate(260)"/><line x1="0" y1="-8" x2="0" y2="8" stroke="#C2185B" stroke-width="2.2" transform="translate(43.4 156.6) rotate(190)"/><circle cx="43.4" cy="156.6" r="1.6" fill="#FFB627" stroke="none"/><line x1="0" y1="-8" x2="0" y2="8" stroke="#C2185B" stroke-width="2.2" transform="translate(26.1 130.6) rotate(282.5)"/><line x1="0" y1="-8" x2="0" y2="8" stroke="#C2185B" stroke-width="2.2" transform="translate(26.1 130.6) rotate(212.5)"/><circle cx="26.1" cy="130.6" r="1.6" fill="#FFB627" stroke="none"/><line x1="0" y1="-8" x2="0" y2="8" stroke="#C2185B" stroke-width="2.2" transform="translate(20 100) rotate(305)"/><line x1="0" y1="-8" x2="0" y2="8" stroke="#C2185B" stroke-width="2.2" transform="translate(20 100) rotate(235)"/><circle cx="20" cy="100" r="1.6" fill="#FFB627" stroke="none"/><line x1="0" y1="-8" x2="0" y2="8" stroke="#C2185B" stroke-width="2.2" transform="translate(26.1 69.4) rotate(327.5)"/><line x1="0" y1="-8" x2="0" y2="8" stroke="#C2185B" stroke-width="2.2" transform="translate(26.1 69.4) rotate(257.5)"/><circle cx="26.1" cy="69.4" r="1.6" fill="#FFB627" stroke="none"/><line x1="0" y1="-8" x2="0" y2="8" stroke="#C2185B" stroke-width="2.2" transform="translate(43.4 43.4) rotate(350)"/><line x1="0" y1="-8" x2="0" y2="8" stroke="#C2185B" stroke-width="2.2" transform="translate(43.4 43.4) rotate(280)"/><circle cx="43.4" cy="43.4" r="1.6" fill="#FFB627" stroke="none"/><line x1="0" y1="-8" x2="0" y2="8" stroke="#C2185B" stroke-width="2.2" transform="translate(69.4 26.1) rotate(372.5)"/><line x1="0" y1="-8" x2="0" y2="8" stroke="#C2185B" stroke-width="2.2" transform="translate(69.4 26.1) rotate(302.5)"/><circle cx="69.4" cy="26.1" r="1.6" fill="#FFB627" stroke="none"/><circle cx="100" cy="100" r="58" stroke="#FFB627" stroke-width="1.6" stroke-dasharray="1 6"/><circle cx="100" cy="64" r="3.4" fill="#E9EEF5" stroke="#9AA6B4" stroke-width=".8"/><circle cx="118" cy="68.8" r="3.4" fill="#E9EEF5" stroke="#9AA6B4" stroke-width=".8"/><circle cx="131.2" cy="82" r="3.4" fill="#E9EEF5" stroke="#9AA6B4" stroke-width=".8"/><circle cx="136" cy="100" r="3.4" fill="#E9EEF5" stroke="#9AA6B4" stroke-width=".8"/><circle cx="131.2" cy="118" r="3.4" fill="#E9EEF5" stroke="#9AA6B4" stroke-width=".8"/><circle cx="118" cy="131.2" r="3.4" fill="#E9EEF5" stroke="#9AA6B4" stroke-width=".8"/><circle cx="100" cy="136" r="3.4" fill="#E9EEF5" stroke="#9AA6B4" stroke-width=".8"/><circle cx="82" cy="131.2" r="3.4" fill="#E9EEF5" stroke="#9AA6B4" stroke-width=".8"/><circle cx="68.8" cy="118" r="3.4" fill="#E9EEF5" stroke="#9AA6B4" stroke-width=".8"/><circle cx="64" cy="100" r="3.4" fill="#E9EEF5" stroke="#9AA6B4" stroke-width=".8"/><circle cx="68.8" cy="82" r="3.4" fill="#E9EEF5" stroke="#9AA6B4" stroke-width=".8"/><circle cx="82" cy="68.8" r="3.4" fill="#E9EEF5" stroke="#9AA6B4" stroke-width=".8"/></g><path d="M100 80 C108 88 109 92 100 98 C91 92 92 88 100 80Z" fill="#FFD27A"/><path d="M86 104 C86 94 92 89 100 89 C108 89 114 94 114 104 C114 116 107 121 100 121 C93 121 86 116 86 104Z" fill="#B5532A"/><rect x="94" y="86" width="12" height="5" rx="1.5" fill="#8A3A1C"/><circle cx="94" cy="102" r="1.7" fill="#FFD27A"/><circle cx="100" cy="99" r="1.7" fill="#FFD27A"/><circle cx="106" cy="102" r="1.7" fill="#FFD27A"/><circle cx="94" cy="110" r="1.7" fill="#FFD27A"/><circle cx="100" cy="113" r="1.7" fill="#FFD27A"/><circle cx="106" cy="110" r="1.7" fill="#FFD27A"/></svg>
